# xmcd CD database file
#
# Track frame offsets:
#	150
#	16567
#	32679
#	49375
#	68075
#	85542
#	101065
#	124883
#	141701
#	158185
#	173866
#	185768
#	207486
#	219603
#	235391
#
# Disc length: 3382 seconds
#
# Revision: 0
# Processed by: cddbd v1.5.2PL0 Copyright (c) Steve Scherf et al.
# Submitted via: CDex 1.70beta2
#
DISCID=dc0d340f
DTITLE=Dan Hicks - Beatin' the Heat
DYEAR=2000
DGENRE=Jazz
TTITLE0=My Cello
TTITLE1=I Don't Want Love
TTITLE2=I Scare Myself
TTITLE3=Strike it While It's Hot
TTITLE4=He Don't Scare Me
TTITLE5=Meet Me On The Corner
TTITLE6=I'll Tell You Why That Is
TTITLE7=Hummin' To Myself
TTITLE8=Doin' It
TTITLE9=Piano Has Been Drinking
TTITLE10=Chattanooga Shoe Shine Boy
TTITLE11=Driftin'
TTITLE12=Hell, I'd Go
TTITLE13=Don't Stop the Meter, Mack
TTITLE14=I've Got a Capo on my Brain
EXTD=YEAR: 2000
EXTT0=
EXTT1=
EXTT2=
EXTT3=
EXTT4=
EXTT5=
EXTT6=
EXTT7=
EXTT8=
EXTT9=
EXTT10=
EXTT11=
EXTT12=
EXTT13=
EXTT14=
PLAYORDER=
